<svg width="271" height="51" viewBox="0 0 271 51" fill="none" xmlns="http://www.w3.org/2000/svg">
<path d="M15.3679 2.63636L9.33097 39H0.541903L6.57884 2.63636H15.3679ZM29.568 2.63636L23.5311 39H14.8485L20.8855 2.63636H29.568ZM48.6065 27.228L51.1989 11.7273H59.8636L55.3182 39H47.044L47.8786 33.9219H47.5945C46.754 35.5909 45.517 36.9167 43.8835 37.8991C42.25 38.8698 40.4093 39.3551 38.3615 39.3551C36.5031 39.3551 34.9406 38.929 33.674 38.0767C32.4074 37.2244 31.5078 36.0348 30.9751 34.5078C30.4543 32.969 30.3596 31.1697 30.6911 29.1101L33.603 11.7273H42.2855L39.6754 27.4055C39.4505 28.8852 39.6458 30.0511 40.2614 30.9034C40.8887 31.7557 41.8712 32.1818 43.2088 32.1818C44.0729 32.1818 44.8838 31.9924 45.6413 31.6136C46.3989 31.223 47.0381 30.6607 47.5589 29.9268C48.0916 29.1811 48.4408 28.2815 48.6065 27.228ZM60.8979 39L65.4434 11.7273H73.6998L72.883 16.7344H73.1848C74.0134 15.0772 75.1853 13.7692 76.7005 12.8104C78.2156 11.8516 79.9083 11.3722 81.7786 11.3722C83.6607 11.3722 85.1936 11.8575 86.3773 12.8281C87.5729 13.7988 88.218 15.1009 88.3127 16.7344H88.5968C89.378 15.1127 90.5854 13.8165 92.2189 12.8459C93.8643 11.8634 95.699 11.3722 97.7232 11.3722C100.28 11.3722 102.227 12.2008 103.565 13.858C104.914 15.5033 105.346 17.7642 104.861 20.6406L101.807 39H93.1422L95.9121 22.6293C96.1015 21.268 95.9003 20.2322 95.3084 19.522C94.7284 18.8 93.882 18.4389 92.7694 18.4389C91.5738 18.4389 90.5736 18.8236 89.7686 19.593C88.9756 20.3625 88.4843 21.4041 88.2949 22.718L85.5428 39H77.1799L79.9675 22.5405C80.1451 21.2739 79.9498 20.2737 79.3816 19.5398C78.8252 18.8059 77.9789 18.4389 76.8425 18.4389C76.0968 18.4389 75.4043 18.6224 74.7651 18.9893C74.1259 19.3445 73.5873 19.8535 73.1493 20.5163C72.7232 21.1792 72.445 21.9605 72.3148 22.8601L69.5804 39H60.8979ZM107.134 39L111.679 11.7273H120.362L115.816 39H107.134ZM116.633 8.53125C115.402 8.53125 114.402 8.12287 113.632 7.30611C112.863 6.48935 112.561 5.51278 112.727 4.37642C112.892 3.22822 113.472 2.25166 114.467 1.44673C115.461 0.641808 116.568 0.239347 117.787 0.239347C119.018 0.239347 120.007 0.641808 120.752 1.44673C121.51 2.25166 121.806 3.22822 121.64 4.37642C121.498 5.51278 120.93 6.48935 119.936 7.30611C118.953 8.12287 117.852 8.53125 116.633 8.53125ZM132.671 23.446L130.078 39H121.396L125.941 11.7273H134.198L133.381 16.7344H133.683C134.535 15.0653 135.772 13.7573 137.394 12.8104C139.016 11.8516 140.838 11.3722 142.863 11.3722C144.768 11.3722 146.36 11.7983 147.639 12.6506C148.917 13.5028 149.823 14.6984 150.355 16.2372C150.888 17.7642 150.977 19.5575 150.622 21.6172L147.71 39H139.027L141.637 23.3217C141.898 21.8184 141.714 20.6406 141.087 19.7884C140.471 18.9242 139.465 18.4922 138.069 18.4922C137.157 18.4922 136.323 18.6934 135.565 19.0959C134.819 19.4865 134.192 20.0488 133.683 20.7827C133.186 21.5166 132.848 22.4044 132.671 23.446ZM160.649 39.4616C158.921 39.4616 157.43 39.1716 156.175 38.5916C154.932 37.9998 154.021 37.1061 153.441 35.9105C152.872 34.715 152.736 33.2235 153.032 31.4361C153.293 29.9209 153.772 28.6484 154.47 27.6186C155.181 26.5769 156.051 25.7306 157.08 25.0795C158.122 24.4285 159.282 23.9313 160.561 23.5881C161.839 23.2448 163.177 23.014 164.573 22.8956C166.136 22.7536 167.402 22.5997 168.373 22.4339C169.356 22.2682 170.089 22.0374 170.575 21.7415C171.06 21.4337 171.356 21.0076 171.463 20.4631V20.3743C171.605 19.4628 171.409 18.7585 170.877 18.2614C170.344 17.7642 169.545 17.5156 168.48 17.5156C167.343 17.5156 166.373 17.7642 165.568 18.2614C164.763 18.7585 164.2 19.4451 163.881 20.321L155.926 20.0369C156.423 18.3797 157.276 16.9001 158.483 15.598C159.691 14.2841 161.223 13.2543 163.082 12.5085C164.952 11.7509 167.112 11.3722 169.563 11.3722C171.291 11.3722 172.853 11.5793 174.25 11.9936C175.647 12.3961 176.825 12.9879 177.784 13.7692C178.754 14.5386 179.447 15.4856 179.861 16.6101C180.275 17.7346 180.364 19.0189 180.127 20.4631L177.02 39H168.852L169.492 35.2003H169.279C168.639 36.1236 167.888 36.9048 167.024 37.544C166.171 38.1832 165.213 38.6626 164.147 38.9822C163.082 39.3018 161.916 39.4616 160.649 39.4616ZM164.307 33.7798C165.218 33.7798 166.083 33.5904 166.899 33.2116C167.716 32.8329 168.403 32.312 168.959 31.6491C169.527 30.9744 169.888 30.1932 170.042 29.3054L170.45 26.7131C170.202 26.8433 169.888 26.9616 169.509 27.0682C169.131 27.1747 168.728 27.2753 168.302 27.37C167.876 27.4529 167.438 27.5357 166.988 27.6186C166.55 27.6896 166.13 27.7547 165.727 27.8139C164.875 27.9441 164.135 28.1454 163.508 28.4176C162.881 28.6899 162.378 29.045 161.999 29.483C161.632 29.9091 161.407 30.4181 161.324 31.0099C161.182 31.8977 161.389 32.5843 161.945 33.0696C162.502 33.5431 163.289 33.7798 164.307 33.7798ZM194.989 39.5149C192.112 39.5149 189.739 38.9231 187.869 37.7393C186.01 36.5556 184.708 34.9103 183.963 32.8033C183.217 30.6844 183.081 28.2341 183.554 25.4524C184.004 22.6589 184.957 20.2086 186.413 18.1016C187.869 15.9827 189.727 14.3314 191.988 13.1477C194.249 11.964 196.806 11.3722 199.659 11.3722C202.18 11.3722 204.299 11.8279 206.015 12.7393C207.743 13.6508 208.992 14.9411 209.762 16.6101C210.543 18.2673 210.774 20.2145 210.454 22.4517H202.34C202.411 21.0668 202.127 19.9777 201.487 19.1847C200.848 18.3797 199.919 17.9773 198.7 17.9773C197.67 17.9773 196.723 18.2614 195.859 18.8295C195.007 19.3859 194.279 20.2145 193.675 21.3153C193.083 22.4044 192.657 23.7538 192.396 25.3636C192.136 26.9735 192.118 28.3348 192.343 29.4474C192.58 30.5483 193.024 31.3828 193.675 31.951C194.338 32.5073 195.178 32.7855 196.196 32.7855C197.001 32.7855 197.747 32.6139 198.433 32.2706C199.12 31.9273 199.718 31.4242 200.227 30.7614C200.736 30.0866 201.132 29.2699 201.416 28.3111H209.513C209.051 30.572 208.158 32.5429 206.832 34.2237C205.518 35.8928 203.855 37.1948 201.843 38.13C199.83 39.0533 197.546 39.5149 194.989 39.5149ZM193.497 38.858H196.977L196.409 40.456C197.664 40.6454 198.623 41.1188 199.286 41.8764C199.949 42.6458 200.173 43.6224 199.96 44.8061C199.676 46.6527 198.564 48.1087 196.622 49.174C194.681 50.2512 192.13 50.7898 188.97 50.7898L189.556 47.2209C191.165 47.2209 192.438 47.0315 193.373 46.6527C194.32 46.2857 194.882 45.7353 195.06 45.0014C195.202 44.303 195.018 43.7526 194.509 43.3501C194 42.9477 193.172 42.6695 192.024 42.5156L193.497 38.858ZM219.78 39.4616C218.052 39.4616 216.56 39.1716 215.306 38.5916C214.063 37.9998 213.151 37.1061 212.571 35.9105C212.003 34.715 211.867 33.2235 212.163 31.4361C212.423 29.9209 212.903 28.6484 213.601 27.6186C214.311 26.5769 215.181 25.7306 216.211 25.0795C217.253 24.4285 218.413 23.9313 219.691 23.5881C220.97 23.2448 222.307 23.014 223.704 22.8956C225.267 22.7536 226.533 22.5997 227.504 22.4339C228.486 22.2682 229.22 22.0374 229.706 21.7415C230.191 21.4337 230.487 21.0076 230.593 20.4631V20.3743C230.735 19.4628 230.54 18.7585 230.007 18.2614C229.475 17.7642 228.676 17.5156 227.61 17.5156C226.474 17.5156 225.503 17.7642 224.699 18.2614C223.894 18.7585 223.331 19.4451 223.012 20.321L215.057 20.0369C215.554 18.3797 216.407 16.9001 217.614 15.598C218.821 14.2841 220.354 13.2543 222.213 12.5085C224.083 11.7509 226.243 11.3722 228.694 11.3722C230.422 11.3722 231.984 11.5793 233.381 11.9936C234.778 12.3961 235.956 12.9879 236.914 13.7692C237.885 14.5386 238.578 15.4856 238.992 16.6101C239.406 17.7346 239.495 19.0189 239.258 20.4631L236.151 39H227.983L228.623 35.2003H228.409C227.77 36.1236 227.019 36.9048 226.154 37.544C225.302 38.1832 224.343 38.6626 223.278 38.9822C222.213 39.3018 221.047 39.4616 219.78 39.4616ZM223.438 33.7798C224.349 33.7798 225.213 33.5904 226.03 33.2116C226.847 32.8329 227.533 32.312 228.09 31.6491C228.658 30.9744 229.019 30.1932 229.173 29.3054L229.581 26.7131C229.333 26.8433 229.019 26.9616 228.64 27.0682C228.261 27.1747 227.859 27.2753 227.433 27.37C227.007 27.4529 226.569 27.5357 226.119 27.6186C225.681 27.6896 225.261 27.7547 224.858 27.8139C224.006 27.9441 223.266 28.1454 222.639 28.4176C222.011 28.6899 221.508 29.045 221.13 29.483C220.763 29.9091 220.538 30.4181 220.455 31.0099C220.313 31.8977 220.52 32.5843 221.076 33.0696C221.633 33.5431 222.42 33.7798 223.438 33.7798ZM224.503 8.35369L219.993 8.31818C220.396 5.91525 221.266 4.09825 222.603 2.86719C223.941 1.62429 225.432 1.00284 227.078 1.00284C227.954 1.00284 228.682 1.14489 229.262 1.42898C229.842 1.71307 230.345 2.03859 230.771 2.40554C231.197 2.76065 231.594 3.08026 231.961 3.36435C232.339 3.64844 232.766 3.79048 233.239 3.79048C233.914 3.79048 234.452 3.5419 234.855 3.04474C235.269 2.53575 235.547 1.86695 235.689 1.03835L240.11 1.09162C239.684 3.47088 238.797 5.28196 237.447 6.52486C236.109 7.76775 234.624 8.40104 232.99 8.42472C232.079 8.42472 231.339 8.28859 230.771 8.01633C230.215 7.73224 229.735 7.40672 229.333 7.03977C228.942 6.67282 228.563 6.35322 228.196 6.08097C227.829 5.79687 227.391 5.65483 226.882 5.65483C226.302 5.65483 225.793 5.89157 225.355 6.36506C224.929 6.8267 224.645 7.48958 224.503 8.35369ZM254.173 39.5149C251.297 39.5149 248.923 38.9231 247.053 37.7393C245.194 36.5556 243.886 34.9044 243.129 32.7855C242.371 30.6667 242.223 28.2045 242.685 25.3991C243.147 22.6056 244.1 20.1553 245.544 18.0483C246.988 15.9413 248.834 14.3018 251.083 13.13C253.333 11.9581 255.883 11.3722 258.736 11.3722C261.601 11.3722 263.962 11.964 265.821 13.1477C267.691 14.3314 269.005 15.9827 269.762 18.1016C270.532 20.2204 270.686 22.6884 270.224 25.5057C269.762 28.2992 268.804 30.7495 267.348 32.8565C265.892 34.9517 264.045 36.5852 261.808 37.7571C259.571 38.929 257.026 39.5149 254.173 39.5149ZM255.15 32.9631C256.215 32.9631 257.168 32.6435 258.008 32.0043C258.86 31.3651 259.577 30.4714 260.157 29.3232C260.737 28.175 261.151 26.8433 261.4 25.3281C261.648 23.8366 261.672 22.5286 261.471 21.4041C261.281 20.2678 260.879 19.3859 260.263 18.7585C259.648 18.1193 258.813 17.7997 257.76 17.7997C256.694 17.7997 255.735 18.1252 254.883 18.7763C254.031 19.4155 253.315 20.3092 252.735 21.4574C252.167 22.5937 251.758 23.9254 251.51 25.4524C251.261 26.9439 251.231 28.2519 251.421 29.3764C251.61 30.5009 252.019 31.3828 252.646 32.022C253.273 32.6494 254.108 32.9631 255.15 32.9631Z" fill="white"/>
<path d="M15.3679 2.63636L16.3544 2.80014L16.5476 1.63636H15.3679V2.63636ZM9.33097 39V40H10.1786L10.3175 39.1638L9.33097 39ZM0.541903 39L-0.444594 38.8362L-0.637799 40H0.541903V39ZM6.57884 2.63636V1.63636H5.73116L5.59234 2.47259L6.57884 2.63636ZM14.3814 2.47259L8.34447 38.8362L10.3175 39.1638L16.3544 2.80014L14.3814 2.47259ZM9.33097 38H0.541903V40H9.33097V38ZM1.5284 39.1638L7.56533 2.80014L5.59234 2.47259L-0.444594 38.8362L1.5284 39.1638ZM6.57884 3.63636H15.3679V1.63636H6.57884V3.63636ZM29.568 2.63636L30.5545 2.80014L30.7477 1.63636H29.568V2.63636ZM23.5311 39V40H24.3787L24.5176 39.1638L23.5311 39ZM14.8485 39L13.862 38.8362L13.6688 40H14.8485V39ZM20.8855 2.63636V1.63636H20.0378L19.899 2.47259L20.8855 2.63636ZM28.5815 2.47259L22.5446 38.8362L24.5176 39.1638L30.5545 2.80014L28.5815 2.47259ZM23.5311 38H14.8485V40H23.5311V38ZM15.835 39.1638L21.872 2.80014L19.899 2.47259L13.862 38.8362L15.835 39.1638ZM20.8855 3.63636H29.568V1.63636H20.8855V3.63636ZM48.6065 27.228L47.6202 27.063L47.6187 27.0726L48.6065 27.228ZM51.1989 11.7273V10.7273H50.3522L50.2126 11.5623L51.1989 11.7273ZM59.8636 11.7273L60.85 11.8917L61.0441 10.7273H59.8636V11.7273ZM55.3182 39V40H56.1653L56.3046 39.1644L55.3182 39ZM47.044 39L46.0573 38.8378L45.8663 40H47.044V39ZM47.8786 33.9219L48.8653 34.084L49.0563 32.9219H47.8786V33.9219ZM47.5945 33.9219V32.9219H46.9784L46.7013 33.4721L47.5945 33.9219ZM43.8835 37.8991L44.3944 38.7588L44.3989 38.7561L43.8835 37.8991ZM33.674 38.0767L33.1157 38.9064L33.674 38.0767ZM30.9751 34.5078L30.0279 34.8284L30.0309 34.8372L30.9751 34.5078ZM30.6911 29.1101L29.7048 28.9449L29.7038 28.9512L30.6911 29.1101ZM33.603 11.7273V10.7273H32.7566L32.6167 11.5621L33.603 11.7273ZM42.2855 11.7273L43.2719 11.8915L43.4658 10.7273H42.2855V11.7273ZM39.6754 27.4055L38.6889 27.2413L38.6868 27.2553L39.6754 27.4055ZM40.2614 30.9034L39.4507 31.4889L39.456 31.4962L40.2614 30.9034ZM45.6413 31.6136L46.0886 32.5081L46.0996 32.5024L45.6413 31.6136ZM47.5589 29.9268L46.7452 29.3456L46.7434 29.3481L47.5589 29.9268ZM49.5928 27.3929L52.1852 11.8922L50.2126 11.5623L47.6202 27.063L49.5928 27.3929ZM51.1989 12.7273H59.8636V10.7273H51.1989V12.7273ZM58.8772 11.5629L54.3318 38.8356L56.3046 39.1644L60.85 11.8917L58.8772 11.5629ZM55.3182 38H47.044V40H55.3182V38ZM48.0308 39.1622L48.8653 34.084L46.8918 33.7597L46.0573 38.8378L48.0308 39.1622ZM47.8786 32.9219H47.5945V34.9219H47.8786V32.9219ZM46.7013 33.4721C45.9476 34.9689 44.8432 36.155 43.3681 37.0422L44.3989 38.7561C46.1909 37.6783 47.5605 36.2129 48.4876 34.3716L46.7013 33.4721ZM43.3727 37.0395C41.9057 37.9111 40.244 38.3551 38.3615 38.3551V40.3551C40.5746 40.3551 42.5943 39.8284 44.3943 38.7588L43.3727 37.0395ZM38.3615 38.3551C36.6583 38.3551 35.301 37.9662 34.2323 37.247L33.1157 38.9064C34.5802 39.8918 36.3479 40.3551 38.3615 40.3551V38.3551ZM34.2323 37.247C33.1561 36.5229 32.3853 35.5143 31.9193 34.1784L30.0309 34.8372C30.6303 36.5553 31.6588 37.926 33.1157 38.9064L34.2323 37.247ZM31.9224 34.1872C31.4664 32.8402 31.3656 31.2123 31.6783 29.269L29.7038 28.9512C29.3536 31.1272 29.4422 33.0978 30.0279 34.8284L31.9224 34.1872ZM31.6773 29.2753L34.5892 11.8925L32.6167 11.5621L29.7048 28.9449L31.6773 29.2753ZM33.603 12.7273H42.2855V10.7273H33.603V12.7273ZM41.2991 11.5631L38.689 27.2413L40.6619 27.5698L43.2719 11.8915L41.2991 11.5631ZM38.6868 27.2553C38.4393 28.8836 38.6268 30.3482 39.4507 31.4889L41.072 30.3179C40.6648 29.7541 40.4618 28.8867 40.6641 27.5558L38.6868 27.2553ZM39.456 31.4962C40.3209 32.6712 41.6463 33.1818 43.2088 33.1818V31.1818C42.0961 31.1818 41.4565 30.8402 41.0667 30.3106L39.456 31.4962ZM43.2088 33.1818C44.2249 33.1818 45.1892 32.9577 46.0885 32.5081L45.1941 30.7192C44.5783 31.0271 43.9209 31.1818 43.2088 31.1818V33.1818ZM46.0996 32.5024C47.0073 32.0344 47.7664 31.3624 48.3745 30.5056L46.7434 29.3481C46.3099 29.9591 45.7905 30.4116 45.183 30.7248L46.0996 32.5024ZM48.3727 30.5081C49.0094 29.6167 49.4085 28.5653 49.5944 27.3834L47.6187 27.0726C47.4732 27.9977 47.1738 28.7455 46.7452 29.3456L48.3727 30.5081ZM60.8979 39L59.9115 38.8356L59.7174 40H60.8979V39ZM65.4434 11.7273V10.7273H64.5962L64.457 11.5629L65.4434 11.7273ZM73.6998 11.7273L74.6867 11.8883L74.8761 10.7273H73.6998V11.7273ZM72.883 16.7344L71.896 16.5734L71.7067 17.7344H72.883V16.7344ZM73.1848 16.7344V17.7344H73.8029L74.0793 17.1816L73.1848 16.7344ZM76.7005 12.8104L77.2352 13.6554L77.2352 13.6554L76.7005 12.8104ZM86.3773 12.8281L85.7432 13.6014L85.747 13.6045L86.3773 12.8281ZM88.3127 16.7344L87.3144 16.7922L87.369 17.7344H88.3127V16.7344ZM88.5968 16.7344V17.7344H89.225L89.4977 17.1684L88.5968 16.7344ZM92.2189 12.8459L92.7298 13.7056L92.7316 13.7045L92.2189 12.8459ZM103.565 13.858L102.787 14.4861L102.792 14.4921L103.565 13.858ZM104.861 20.6406L103.875 20.4743L103.875 20.4765L104.861 20.6406ZM101.807 39V40H102.654L102.793 39.1641L101.807 39ZM93.1422 39L92.1562 38.8332L91.9588 40H93.1422V39ZM95.9121 22.6293L96.8981 22.7961L96.9005 22.7816L96.9026 22.7671L95.9121 22.6293ZM95.3084 19.522L94.5288 20.1483L94.5344 20.1553L94.5402 20.1622L95.3084 19.522ZM89.7686 19.593L89.0776 18.8701L89.0723 18.8753L89.7686 19.593ZM88.2949 22.718L89.2809 22.8847L89.283 22.8727L89.2847 22.8607L88.2949 22.718ZM85.5428 39V40H86.3879L86.5288 39.1667L85.5428 39ZM77.1799 39L76.1939 38.833L75.9963 40H77.1799V39ZM79.9675 22.5405L80.9535 22.7075L80.9558 22.6934L80.9578 22.6793L79.9675 22.5405ZM79.3816 19.5398L78.5846 20.1439L78.5908 20.1519L79.3816 19.5398ZM74.7651 18.9893L75.2508 19.8636L75.263 19.8566L74.7651 18.9893ZM73.1493 20.5163L72.3149 19.965L72.3081 19.9756L73.1493 20.5163ZM72.3148 22.8601L73.3008 23.0271L73.3028 23.0152L73.3045 23.0033L72.3148 22.8601ZM69.5804 39V40H70.4253L70.5664 39.167L69.5804 39ZM61.8843 39.1644L66.4298 11.8917L64.457 11.5629L59.9115 38.8356L61.8843 39.1644ZM65.4434 12.7273H73.6998V10.7273H65.4434V12.7273ZM72.7128 11.5663L71.896 16.5734L73.8699 16.8954L74.6867 11.8883L72.7128 11.5663ZM72.883 17.7344H73.1848V15.7344H72.883V17.7344ZM74.0793 17.1816C74.8293 15.6816 75.8792 14.5135 77.2352 13.6554L76.1657 11.9654C74.4914 13.0249 73.1976 14.4728 72.2904 16.2872L74.0793 17.1816ZM77.2352 13.6554C78.5833 12.8023 80.0891 12.3722 81.7786 12.3722V10.3722C79.7276 10.3722 77.8479 10.9008 76.1657 11.9654L77.2352 13.6554ZM81.7786 12.3722C83.4842 12.3722 84.7765 12.8087 85.7432 13.6014L87.0114 12.0549C85.6107 10.9063 83.8371 10.3722 81.7786 10.3722V12.3722ZM85.747 13.6045C86.7095 14.3859 87.2348 15.4195 87.3144 16.7922L89.311 16.6765C89.2012 14.7822 88.4362 13.2117 87.0076 12.0518L85.747 13.6045ZM88.3127 17.7344H88.5968V15.7344H88.3127V17.7344ZM89.4977 17.1684C90.1887 15.734 91.2554 14.5816 92.7298 13.7056L91.7081 11.9862C89.9154 13.0514 88.5673 14.4914 87.6959 16.3004L89.4977 17.1684ZM92.7316 13.7045C94.2131 12.8198 95.869 12.3722 97.7232 12.3722V10.3722C95.5291 10.3722 93.5154 10.907 91.7063 11.9873L92.7316 13.7045ZM97.7232 12.3722C100.045 12.3722 101.677 13.1118 102.787 14.486L104.343 13.2299C102.777 11.2897 100.515 10.3722 97.7232 10.3722V12.3722ZM102.792 14.4921C103.897 15.8398 104.331 17.7723 103.875 20.4743L105.847 20.807C106.362 17.7561 105.932 15.1668 104.338 13.2238L102.792 14.4921ZM103.875 20.4765L100.821 38.8359L102.793 39.1641L105.847 20.8047L103.875 20.4765ZM101.807 38H93.1422V40H101.807V38ZM94.1282 39.1668L96.8981 22.7961L94.9261 22.4624L92.1562 38.8332L94.1282 39.1668ZM96.9026 22.7671C97.1118 21.2634 96.9215 19.8957 96.0766 18.8818L94.5402 20.1622C94.879 20.5688 95.0912 21.2725 94.9216 22.4915L96.9026 22.7671ZM96.088 18.8958C95.2795 17.8892 94.1174 17.4389 92.7694 17.4389V19.4389C93.6467 19.4389 94.1773 19.7107 94.5288 20.1483L96.088 18.8958ZM92.7694 17.4389C91.3372 17.4389 90.0832 17.909 89.0777 18.8702L90.4596 20.3159C91.0639 19.7383 91.8104 19.4389 92.7694 19.4389V17.4389ZM89.0723 18.8753C88.0904 19.8279 87.5195 21.0881 87.3052 22.5754L89.2847 22.8607C89.4491 21.7202 89.8607 20.897 90.465 20.3108L89.0723 18.8753ZM87.3089 22.5514L84.5568 38.8333L86.5288 39.1667L89.2809 22.8847L87.3089 22.5514ZM85.5428 38H77.1799V40H85.5428V38ZM78.1658 39.167L80.9535 22.7075L78.9815 22.3735L76.1939 38.833L78.1658 39.167ZM80.9578 22.6793C81.1583 21.2492 80.9601 19.9451 80.1723 18.9276L78.5908 20.1519C78.9394 20.6022 79.1318 21.2986 78.9772 22.4017L80.9578 22.6793ZM80.1785 18.9357C79.3888 17.894 78.2104 17.4389 76.8425 17.4389V19.4389C77.7473 19.4389 78.2617 19.7178 78.5847 20.1439L80.1785 18.9357ZM76.8425 17.4389C75.9242 17.4389 75.0598 17.6671 74.2672 18.1221L75.263 19.8566C75.7488 19.5777 76.2693 19.4389 76.8425 19.4389V17.4389ZM74.2794 18.1152C73.4878 18.555 72.8337 19.18 72.315 19.9651L73.9837 21.0676C74.3409 20.5269 74.7639 20.1339 75.2507 19.8635L74.2794 18.1152ZM72.3081 19.9756C71.7936 20.7759 71.4727 21.6973 71.3251 22.7168L73.3045 23.0033C73.4173 22.2237 73.6527 21.5825 73.9905 21.0571L72.3081 19.9756ZM71.3289 22.693L68.5945 38.833L70.5664 39.167L73.3008 23.0271L71.3289 22.693ZM69.5804 38H60.8979V40H69.5804V38ZM107.134 39L106.147 38.8356L105.953 40H107.134V39ZM111.679 11.7273V10.7273H110.832L110.693 11.5629L111.679 11.7273ZM120.362 11.7273L121.348 11.8917L121.542 10.7273H120.362V11.7273ZM115.816 39V40H116.663L116.803 39.1644L115.816 39ZM113.632 7.30611L114.36 6.62041L114.36 6.62041L113.632 7.30611ZM112.727 4.37642L113.716 4.52073L113.716 4.51927L112.727 4.37642ZM114.467 1.44673L113.838 0.669486L113.838 0.669487L114.467 1.44673ZM120.752 1.44673L120.019 2.12638L120.024 2.1321L120.752 1.44673ZM121.64 4.37642L120.65 4.23357L120.649 4.24296L120.648 4.25238L121.64 4.37642ZM119.936 7.30611L119.301 6.53337L119.296 6.53713L119.936 7.30611ZM108.12 39.1644L112.666 11.8917L110.693 11.5629L106.147 38.8356L108.12 39.1644ZM111.679 12.7273H120.362V10.7273H111.679V12.7273ZM119.375 11.5629L114.83 38.8356L116.803 39.1644L121.348 11.8917L119.375 11.5629ZM115.816 38H107.134V40H115.816V38ZM116.633 7.53125C115.648 7.53125 114.921 7.21594 114.36 6.62041L112.904 7.9918C113.882 9.02979 115.156 9.53125 116.633 9.53125V7.53125ZM114.36 6.62041C113.806 6.03187 113.593 5.36324 113.716 4.52073L111.737 4.23211C111.529 5.66233 111.92 6.94682 112.904 7.9918L114.36 6.62041ZM113.716 4.51927C113.842 3.64687 114.276 2.88807 115.096 2.22398L113.838 0.669487C112.669 1.61525 111.943 2.80957 111.737 4.23357L113.716 4.51927ZM115.096 2.22398C115.922 1.55551 116.809 1.23935 117.787 1.23935V-0.760653C116.327 -0.760653 115 -0.271893 113.838 0.669486L115.096 2.22398ZM117.787 1.23935C118.777 1.23935 119.486 1.55171 120.019 2.12636L121.486 0.767107C120.527 -0.268089 119.259 -0.760653 117.787 -0.760653V1.23935ZM120.024 2.1321C120.561 2.70279 120.775 3.3696 120.65 4.23357L122.63 4.51927C122.837 3.08684 122.459 1.80052 121.481 0.761367L120.024 2.1321ZM120.648 4.25238C120.542 5.10264 120.124 5.85736 119.301 6.53338L120.57 8.07883C121.736 7.12133 122.455 5.92293 122.632 4.50045L120.648 4.25238ZM119.296 6.53713C118.484 7.21235 117.607 7.53125 116.633 7.53125V9.53125C118.098 9.53125 119.422 9.03339 120.575 8.07509L119.296 6.53713ZM132.671 23.446L131.685 23.278L131.684 23.2816L132.671 23.446ZM130.078 39V40H130.926L131.065 39.1644L130.078 39ZM121.396 39L120.41 38.8356L120.215 40H121.396V39ZM125.941 11.7273V10.7273H125.094L124.955 11.5629L125.941 11.7273ZM134.198 11.7273L135.185 11.8883L135.374 10.7273H134.198V11.7273ZM133.381 16.7344L132.394 16.5734L132.205 17.7344H133.381V16.7344ZM133.683 16.7344V17.7344H134.295L134.573 17.1892L133.683 16.7344ZM137.394 12.8104L137.898 13.6739L137.903 13.6712L137.394 12.8104ZM147.639 12.6506L147.084 13.4826L147.084 13.4826L147.639 12.6506ZM150.355 16.2372L149.41 16.5643L149.411 16.5666L150.355 16.2372ZM150.622 21.6172L149.636 21.4473L149.636 21.452L150.622 21.6172ZM147.71 39V40H148.556L148.696 39.1652L147.71 39ZM139.027 39L138.041 38.8358L137.847 40H139.027V39ZM141.637 23.3217L140.652 23.151L140.651 23.1575L141.637 23.3217ZM141.087 19.7884L140.273 20.3685L140.277 20.3749L140.282 20.3812L141.087 19.7884ZM135.565 19.0959L136.029 19.9817L136.034 19.979L135.565 19.0959ZM133.683 20.7827L132.861 20.2127L132.855 20.2218L133.683 20.7827ZM131.684 23.2816L129.092 38.8356L131.065 39.1644L133.657 23.6104L131.684 23.2816ZM130.078 38H121.396V40H130.078V38ZM122.382 39.1644L126.928 11.8917L124.955 11.5629L120.41 38.8356L122.382 39.1644ZM125.941 12.7273H134.198V10.7273H125.941V12.7273ZM133.211 11.5663L132.394 16.5734L134.368 16.8954L135.185 11.8883L133.211 11.5663ZM133.381 17.7344H133.683V15.7344H133.381V17.7344ZM134.573 17.1892C135.339 15.6909 136.441 14.5246 137.898 13.6739L136.89 11.9468C135.103 12.9901 133.732 14.4398 132.792 16.2796L134.573 17.1892ZM137.903 13.6712C139.359 12.8103 141.004 12.3722 142.863 12.3722V10.3722C140.673 10.3722 138.672 10.8929 136.885 11.9496L137.903 13.6712ZM142.863 12.3722C144.619 12.3722 146.006 12.7636 147.084 13.4826L148.194 11.8185C146.715 10.833 144.918 10.3722 142.863 10.3722V12.3722ZM147.084 13.4826C148.17 14.2062 148.945 15.2187 149.41 16.5643L151.3 15.9101C150.701 14.178 149.665 12.7995 148.194 11.8185L147.084 13.4826ZM149.411 16.5666C149.874 17.8932 149.971 19.5072 149.636 21.4473L151.607 21.7871C151.983 19.6078 151.902 17.6352 151.3 15.9078L149.411 16.5666ZM149.636 21.452L146.724 38.8348L148.696 39.1652L151.608 21.7824L149.636 21.452ZM147.71 38H139.027V40H147.71V38ZM140.014 39.1642L142.624 23.486L140.651 23.1575L138.041 38.8358L140.014 39.1642ZM142.623 23.4924C142.909 21.8405 142.741 20.3488 141.892 19.1955L140.282 20.3812C140.687 20.9324 140.887 21.7964 140.652 23.151L142.623 23.4924ZM141.901 19.2082C141.041 18.0007 139.676 17.4922 138.069 17.4922V19.4922C139.254 19.4922 139.902 19.8478 140.273 20.3685L141.901 19.2082ZM138.069 17.4922C137.004 17.4922 136.007 17.7288 135.096 18.2128L136.034 19.979C136.638 19.6581 137.31 19.4922 138.069 19.4922V17.4922ZM135.101 18.21C134.204 18.6801 133.456 19.3545 132.861 20.2128L134.505 21.3526C134.927 20.743 135.435 20.2929 136.029 19.9817L135.101 18.21ZM132.855 20.2218C132.264 21.0944 131.882 22.1223 131.685 23.278L133.657 23.6141C133.815 22.6865 134.108 21.9388 134.511 21.3435L132.855 20.2218ZM156.175 38.5916L155.745 39.4945L155.755 39.4993L156.175 38.5916ZM153.441 35.9105L152.537 36.3398L152.541 36.347L153.441 35.9105ZM153.032 31.4361L152.047 31.2667L152.046 31.2727L153.032 31.4361ZM154.47 27.6186L153.644 27.0553L153.643 27.0573L154.47 27.6186ZM157.08 25.0795L156.55 24.2315L156.546 24.2343L157.08 25.0795ZM160.561 23.5881L160.301 22.6223L160.301 22.6223L160.561 23.5881ZM164.573 22.8956L164.658 23.892L164.664 23.8915L164.573 22.8956ZM168.373 22.4339L168.207 21.4479L168.205 21.4482L168.373 22.4339ZM170.575 21.7415L171.095 22.5953L171.103 22.5907L171.11 22.586L170.575 21.7415ZM171.463 20.4631L172.444 20.6551L172.463 20.56V20.4631H171.463ZM171.463 20.3743L170.474 20.2203L170.463 20.2968V20.3743H171.463ZM170.877 18.2614L171.559 17.5303L171.559 17.5303L170.877 18.2614ZM165.568 18.2614L165.042 17.4106L165.042 17.4106L165.568 18.2614ZM163.881 20.321L163.845 21.3204L164.571 21.3463L164.82 20.6638L163.881 20.321ZM155.926 20.0369L154.968 19.7496L154.596 20.9901L155.891 21.0363L155.926 20.0369ZM158.483 15.598L159.216 16.278L159.219 16.2746L158.483 15.598ZM163.082 12.5085L163.454 13.4366L163.457 13.4354L163.082 12.5085ZM174.25 11.9936L173.966 12.9524L173.973 12.9545L174.25 11.9936ZM177.784 13.7692L177.152 14.5445L177.162 14.5528L177.784 13.7692ZM179.861 16.6101L180.799 16.2644L180.799 16.2644L179.861 16.6101ZM180.127 20.4631L181.114 20.6284L181.114 20.6248L180.127 20.4631ZM177.02 39V40H177.866L178.006 39.1653L177.02 39ZM168.852 39L167.866 38.8341L167.67 40H168.852V39ZM169.492 35.2003L170.478 35.3662L170.674 34.2003H169.492V35.2003ZM169.279 35.2003V34.2003H168.755L168.456 34.6311L169.279 35.2003ZM167.024 37.544L166.429 36.7401L166.424 36.744L167.024 37.544ZM164.147 38.9822L164.435 39.9401L164.435 39.9401L164.147 38.9822ZM166.899 33.2116L166.479 32.3045L166.479 32.3045L166.899 33.2116ZM168.959 31.6491L168.194 31.005L168.193 31.0063L168.959 31.6491ZM170.042 29.3054L171.027 29.4762L171.029 29.4686L171.03 29.461L170.042 29.3054ZM170.45 26.7131L171.438 26.8687L171.748 24.9047L169.986 25.8272L170.45 26.7131ZM169.509 27.0682L169.239 26.1055L169.239 26.1055L169.509 27.0682ZM168.302 27.37L168.493 28.3516L168.506 28.3491L168.519 28.3462L168.302 27.37ZM166.988 27.6186L167.148 28.6057L167.159 28.604L167.169 28.6021L166.988 27.6186ZM165.727 27.8139L165.582 26.8245L165.576 26.8254L165.727 27.8139ZM163.508 28.4176L163.906 29.335L163.906 29.335L163.508 28.4176ZM161.999 29.483L161.242 28.8288L161.241 28.8304L161.999 29.483ZM161.324 31.0099L162.311 31.1679L162.313 31.1583L162.314 31.1486L161.324 31.0099ZM161.945 33.0696L161.288 33.8232L161.297 33.8311L161.945 33.0696ZM160.649 38.4616C159.031 38.4616 157.689 38.1899 156.594 37.6839L155.755 39.4993C157.17 40.1534 158.811 40.4616 160.649 40.4616V38.4616ZM156.605 37.6888C155.559 37.1907 154.817 36.4575 154.34 35.474L152.541 36.347C153.224 37.7546 154.305 38.8088 155.745 39.4945L156.605 37.6888ZM154.344 35.4813C153.89 34.5268 153.744 33.2579 154.019 31.5994L152.046 31.2727C151.728 33.1891 151.855 34.9031 152.537 36.3398L154.344 35.4813ZM154.018 31.6055C154.26 30.1985 154.696 29.0675 155.298 28.1799L153.643 27.0573C152.848 28.2294 152.326 29.6434 152.047 31.2667L154.018 31.6055ZM155.297 28.1819C155.933 27.2492 156.705 26.5003 157.615 25.9248L156.546 24.2343C155.397 24.9609 154.429 25.9047 153.644 27.0553L155.297 28.1819ZM157.61 25.9275C158.562 25.3328 159.63 24.8735 160.82 24.5539L160.301 22.6223C158.935 22.9892 157.682 23.5242 156.55 24.2315L157.61 25.9275ZM160.82 24.5539C162.038 24.2268 163.317 24.0057 164.658 23.892L164.489 21.8992C163.036 22.0223 161.64 22.2628 160.301 22.6223L160.82 24.5539ZM164.664 23.8915C166.239 23.7483 167.534 23.5916 168.541 23.4197L168.205 21.4482C167.27 21.6077 166.033 21.7588 164.483 21.8997L164.664 23.8915ZM168.539 23.42C169.567 23.2466 170.449 22.9895 171.095 22.5953L170.054 20.8877C169.73 21.0853 169.144 21.2898 168.207 21.4479L168.539 23.42ZM171.11 22.586C171.818 22.1371 172.283 21.4797 172.444 20.6551L170.481 20.2711C170.429 20.5354 170.302 20.7303 170.039 20.897L171.11 22.586ZM172.463 20.4631V20.3743H170.463V20.4631H172.463ZM172.451 20.5283C172.628 19.3873 172.398 18.3138 171.559 17.5303L170.194 18.9924C170.42 19.2033 170.581 19.5383 170.474 20.2203L172.451 20.5283ZM171.559 17.5303C170.771 16.7949 169.683 16.5156 168.48 16.5156V18.5156C169.407 18.5156 169.917 18.7335 170.194 18.9924L171.559 17.5303ZM168.48 16.5156C167.195 16.5156 166.034 16.7978 165.042 17.4106L166.093 19.1122C166.711 18.7306 167.491 18.5156 168.48 18.5156V16.5156ZM165.042 17.4106C164.049 18.0239 163.339 18.888 162.941 19.9783L164.82 20.6638C165.062 20.0022 165.476 19.4931 166.093 19.1122L165.042 17.4106ZM163.917 19.3217L155.962 19.0376L155.891 21.0363L163.845 21.3204L163.917 19.3217ZM156.884 20.3243C157.336 18.8173 158.11 17.4711 159.216 16.278L157.75 14.9181C156.441 16.3291 155.511 17.9422 154.968 19.7496L156.884 20.3243ZM159.219 16.2746C160.314 15.0834 161.717 14.1336 163.454 13.4366L162.709 11.5805C160.73 12.375 159.067 13.4848 157.747 14.9214L159.219 16.2746ZM163.457 13.4354C165.186 12.7353 167.214 12.3722 169.563 12.3722V10.3722C167.011 10.3722 164.719 10.7666 162.706 11.5817L163.457 13.4354ZM169.563 12.3722C171.212 12.3722 172.677 12.5699 173.966 12.9523L174.535 11.0349C173.03 10.5887 171.37 10.3722 169.563 10.3722V12.3722ZM173.973 12.9545C175.263 13.3261 176.314 13.8619 177.152 14.5444L178.415 12.9939C177.335 12.1139 176.031 11.466 174.527 11.0327L173.973 12.9545ZM177.162 14.5528C177.994 15.2122 178.574 16.0096 178.923 16.9558L180.799 16.2644C180.319 14.9615 179.514 13.865 178.405 12.9855L177.162 14.5528ZM178.923 16.9558C179.265 17.8859 179.355 18.9902 179.14 20.3013L181.114 20.6248C181.373 19.0477 181.285 17.5833 180.799 16.2644L178.923 16.9558ZM179.141 20.2977L176.034 38.8347L178.006 39.1653L181.114 20.6284L179.141 20.2977ZM177.02 38H168.852V40H177.02V38ZM169.839 39.1659L170.478 35.3662L168.506 35.0344L167.866 38.8341L169.839 39.1659ZM169.492 34.2003H169.279V36.2003H169.492V34.2003ZM168.456 34.6311C167.877 35.4683 167.201 36.169 166.429 36.7401L167.618 38.348C168.575 37.6407 169.402 36.7789 170.101 35.7695L168.456 34.6311ZM166.424 36.744C165.67 37.3096 164.818 37.7371 163.86 38.0244L164.435 39.9401C165.608 39.5882 166.673 39.0569 167.624 38.344L166.424 36.744ZM163.86 38.0244C162.9 38.3125 161.832 38.4616 160.649 38.4616V40.4616C162 40.4616 163.264 40.2912 164.435 39.9401L163.86 38.0244ZM164.307 34.7798C165.362 34.7798 166.37 34.5595 167.32 34.1188L166.479 32.3045C165.795 32.6213 165.075 32.7798 164.307 32.7798V34.7798ZM167.32 34.1188C168.264 33.6809 169.07 33.0718 169.725 32.292L168.193 31.0063C167.735 31.5522 167.168 31.9848 166.479 32.3045L167.32 34.1188ZM169.724 32.2933C170.409 31.4801 170.844 30.5346 171.027 29.4762L169.057 29.1346C168.932 29.8518 168.646 30.4688 168.194 31.005L169.724 32.2933ZM171.03 29.461L171.438 26.8687L169.463 26.5575L169.054 29.1498L171.03 29.461ZM169.986 25.8272C169.818 25.9152 169.575 26.0109 169.239 26.1055L169.78 28.0308C170.201 27.9124 170.585 27.7713 170.914 27.5989L169.986 25.8272ZM169.239 26.1055C168.879 26.2065 168.495 26.3027 168.085 26.3938L168.519 28.3462C168.961 28.2479 169.382 28.1429 169.78 28.0308L169.239 26.1055ZM168.111 26.3884C167.688 26.4706 167.254 26.5529 166.807 26.6352L167.169 28.6021C167.622 28.5186 168.063 28.4352 168.493 28.3516L168.111 26.3884ZM166.828 26.6315C166.394 26.7018 165.979 26.7662 165.582 26.8246L165.873 28.8033C166.281 28.7433 166.706 28.6775 167.148 28.6057L166.828 26.6315ZM165.576 26.8254C164.66 26.9654 163.834 27.1862 163.11 27.5003L163.906 29.335C164.437 29.1045 165.09 28.9229 165.878 28.8025L165.576 26.8254ZM163.11 27.5003C162.37 27.8215 161.736 28.2586 161.242 28.8288L162.755 30.1371C163.02 29.8314 163.392 29.5582 163.906 29.335L163.11 27.5003ZM161.241 28.8304C160.741 29.4113 160.441 30.1019 160.334 30.8713L162.314 31.1486C162.372 30.7343 162.523 30.4069 162.757 30.1355L161.241 28.8304ZM160.337 30.852C160.154 31.9944 160.413 33.0594 161.288 33.8232L162.603 32.316C162.366 32.1091 162.21 31.8011 162.311 31.1679L160.337 30.852ZM161.297 33.8311C162.095 34.5096 163.144 34.7798 164.307 34.7798V32.7798C163.434 32.7798 162.909 32.5766 162.594 32.3081L161.297 33.8311ZM187.869 37.7393L187.332 38.5828L187.334 38.5843L187.869 37.7393ZM183.963 32.8033L183.019 33.1353L183.02 33.1369L183.963 32.8033ZM183.554 25.4524L184.54 25.6202L184.541 25.6114L183.554 25.4524ZM186.413 18.1016L187.236 18.6701L187.237 18.6679L186.413 18.1016ZM191.988 13.1477L191.524 12.2618L191.524 12.2618L191.988 13.1477ZM206.015 12.7393L205.546 13.6225L205.549 13.6239L206.015 12.7393ZM209.762 16.6101L208.853 17.0287L208.857 17.0365L209.762 16.6101ZM210.454 22.4517V23.4517H211.321L211.444 22.5931L210.454 22.4517ZM202.34 22.4517L201.341 22.4005L201.287 23.4517H202.34V22.4517ZM201.487 19.1847L200.704 19.8066L200.709 19.8122L201.487 19.1847ZM195.859 18.8295L196.405 19.6669L196.408 19.6651L195.859 18.8295ZM193.675 21.3153L192.798 20.8345L192.796 20.8378L193.675 21.3153ZM192.396 25.3636L193.384 25.5233L193.384 25.5233L192.396 25.3636ZM192.343 29.4474L191.363 29.6456L191.366 29.6577L192.343 29.4474ZM193.675 31.951L193.017 32.7044L193.025 32.7108L193.032 32.717L193.675 31.951ZM198.433 32.2706L197.986 31.3762L197.986 31.3762L198.433 32.2706ZM200.227 30.7614L201.02 31.3704L201.025 31.3636L200.227 30.7614ZM201.416 28.3111V27.3111H200.67L200.458 28.027L201.416 28.3111ZM209.513 28.3111L210.493 28.5111L210.738 27.3111H209.513V28.3111ZM206.832 34.2237L206.047 33.6044L206.046 33.6052L206.832 34.2237ZM201.843 38.13L202.26 39.0389L202.264 39.0368L201.843 38.13ZM193.497 38.858V37.858H192.822L192.57 38.4842L193.497 38.858ZM196.977 38.858L197.92 39.193L198.394 37.858H196.977V38.858ZM196.409 40.456L195.467 40.121L195.061 41.2637L196.26 41.4448L196.409 40.456ZM199.286 41.8764L200.043 41.2237L200.038 41.2179L199.286 41.8764ZM199.96 44.8061L198.976 44.629L198.974 44.6415L198.972 44.6541L199.96 44.8061ZM196.622 49.174L196.141 48.2973L196.137 48.2996L196.622 49.174ZM188.97 50.7898L187.983 50.6278L187.792 51.7898H188.97V50.7898ZM189.556 47.2209V46.2209H188.706L188.569 47.0589L189.556 47.2209ZM193.373 46.6527L193.012 45.7203L193.005 45.723L192.998 45.7258L193.373 46.6527ZM195.06 45.0014L196.032 45.2366L196.036 45.2187L196.04 45.2007L195.06 45.0014ZM194.509 43.3501L195.13 42.5657L195.13 42.5657L194.509 43.3501ZM192.024 42.5156L191.096 42.1419L190.615 43.3358L191.891 43.5068L192.024 42.5156ZM194.989 38.5149C192.246 38.5149 190.072 37.9506 188.404 36.8944L187.334 38.5843C189.406 39.8955 191.979 40.5149 194.989 40.5149V38.5149ZM188.406 36.8959C186.739 35.834 185.578 34.3695 184.905 32.4696L183.02 33.1369C183.839 35.4511 185.282 37.2773 187.332 38.5828L188.406 36.8959ZM184.906 32.4713C184.229 30.5487 184.088 28.2766 184.54 25.6202L182.568 25.2846C182.074 28.1916 182.204 30.8201 183.019 33.1353L184.906 32.4713ZM184.541 25.6114C184.97 22.9493 185.873 20.6422 187.236 18.6701L185.59 17.5331C184.041 19.775 183.038 22.3684 182.567 25.2934L184.541 25.6114ZM187.237 18.6679C188.601 16.6823 190.337 15.1412 192.452 14.0336L191.524 12.2618C189.118 13.5217 187.136 15.2831 185.589 17.5352L187.237 18.6679ZM192.452 14.0336C194.554 12.9333 196.948 12.3722 199.659 12.3722V10.3722C196.664 10.3722 193.944 10.9947 191.524 12.2618L192.452 14.0336ZM199.659 12.3722C202.063 12.3722 204.011 12.8072 205.546 13.6225L206.484 11.8562C204.587 10.8486 202.296 10.3722 199.659 10.3722V12.3722ZM205.549 13.6239C207.096 14.4397 208.182 15.5724 208.853 17.0287L210.67 16.1914C209.802 14.3097 208.391 12.8619 206.482 11.8548L205.549 13.6239ZM208.857 17.0365C209.537 18.4795 209.763 20.2212 209.464 22.3103L211.444 22.5931C211.785 20.2078 211.548 18.0551 210.666 16.1837L208.857 17.0365ZM210.454 21.4517H202.34V23.4517H210.454V21.4517ZM203.338 22.5029C203.417 20.9619 203.108 19.6016 202.266 18.5571L200.709 19.8122C201.145 20.3539 201.404 21.1716 201.341 22.4005L203.338 22.5029ZM202.271 18.5628C201.405 17.4734 200.161 16.9773 198.7 16.9773V18.9773C199.677 18.9773 200.291 19.2861 200.704 19.8065L202.271 18.5628ZM198.7 16.9773C197.474 16.9773 196.336 17.319 195.309 17.994L196.408 19.6651C197.11 19.2037 197.866 18.9773 198.7 18.9773V16.9773ZM195.312 17.9922C194.294 18.657 193.463 19.6227 192.798 20.8345L194.552 21.7962C195.095 20.8063 195.719 20.1147 196.405 19.6669L195.312 17.9922ZM192.796 20.8378C192.137 22.0516 191.682 23.5159 191.409 25.2039L193.384 25.5233C193.631 23.9917 194.029 22.7571 194.554 21.7929L192.796 20.8378ZM191.409 25.2039C191.137 26.885 191.106 28.3756 191.363 29.6456L193.323 29.2493C193.13 28.2939 193.135 27.0619 193.384 25.5233L191.409 25.2039ZM191.366 29.6577C191.634 30.9054 192.161 31.9567 193.017 32.7044L194.332 31.1976C193.887 30.8089 193.526 30.1911 193.321 29.2372L191.366 29.6577ZM193.032 32.717C193.906 33.4503 194.987 33.7855 196.196 33.7855V31.7855C195.37 31.7855 194.77 31.5644 194.318 31.185L193.032 32.717ZM196.196 33.7855C197.149 33.7855 198.048 33.5811 198.881 33.165L197.986 31.3762C197.445 31.6466 196.854 31.7855 196.196 31.7855V33.7855ZM198.881 33.165C199.714 32.7482 200.427 32.1425 201.02 31.3704L199.434 30.1523C199.008 30.706 198.526 31.1065 197.986 31.3762L198.881 33.165ZM201.025 31.3636C201.618 30.5776 202.063 29.6482 202.375 28.5952L200.458 28.027C200.201 28.8916 199.853 29.5957 199.428 30.1591L201.025 31.3636ZM201.416 29.3111H209.513V27.3111H201.416V29.3111ZM208.533 28.111C208.1 30.2311 207.268 32.0556 206.047 33.6044L207.617 34.843C209.047 33.0301 210.002 30.9129 210.493 28.5111L208.533 28.111ZM206.046 33.6052C204.834 35.1453 203.298 36.3511 201.421 37.2231L202.264 39.0368C204.412 38.0386 206.202 36.6402 207.618 34.8423L206.046 33.6052ZM201.425 37.2211C199.563 38.0757 197.424 38.5149 194.989 38.5149V40.5149C197.667 40.5149 200.098 40.0308 202.26 39.0389L201.425 37.2211ZM193.497 39.858H196.977V37.858H193.497V39.858ZM196.035 38.5229L195.467 40.121L197.351 40.791L197.92 39.193L196.035 38.5229ZM196.26 41.4448C197.344 41.6083 198.063 41.9978 198.533 42.5349L200.038 41.2179C199.182 40.2399 197.984 39.6824 196.559 39.4672L196.26 41.4448ZM198.528 42.5291C198.957 43.0272 199.147 43.681 198.976 44.629L200.945 44.9833C201.2 43.5638 200.94 42.2645 200.043 41.2237L198.528 42.5291ZM198.972 44.6541C198.744 46.1346 197.867 47.3504 196.141 48.2973L197.103 50.0507C199.261 48.8669 200.608 47.1708 200.949 44.9582L198.972 44.6541ZM196.137 48.2996C194.394 49.2668 192.028 49.7898 188.97 49.7898V51.7898C192.232 51.7898 194.968 51.2355 197.108 50.0484L196.137 48.2996ZM189.956 50.9518L190.542 47.3829L188.569 47.0589L187.983 50.6278L189.956 50.9518ZM189.556 48.2209C191.226 48.2209 192.644 48.0268 193.748 47.5795L192.998 45.7258C192.232 46.0362 191.104 46.2209 189.556 46.2209V48.2209ZM193.734 47.5851C194.871 47.1446 195.752 46.3929 196.032 45.2366L194.088 44.7663C194.013 45.0778 193.769 45.4269 193.012 45.7203L193.734 47.5851ZM196.04 45.2007C196.138 44.7188 196.136 44.224 195.977 43.7486C195.817 43.2673 195.518 42.8729 195.13 42.5657L193.889 44.1346C194.01 44.2298 194.057 44.3119 194.08 44.381C194.105 44.4561 194.124 44.5856 194.08 44.8021L196.04 45.2007ZM195.13 42.5657C194.408 41.995 193.362 41.6861 192.156 41.5245L191.891 43.5068C192.982 43.6529 193.593 43.9004 193.889 44.1346L195.13 42.5657ZM192.951 42.8893L194.425 39.2317L192.57 38.4842L191.096 42.1419L192.951 42.8893ZM215.306 38.5916L214.876 39.4945L214.886 39.4993L215.306 38.5916ZM212.571 35.9105L211.668 36.3398L211.672 36.347L212.571 35.9105ZM212.163 31.4361L211.177 31.2667L211.176 31.2727L212.163 31.4361ZM213.601 27.6186L212.775 27.0553L212.774 27.0573L213.601 27.6186ZM216.211 25.0795L215.681 24.2315L215.677 24.2343L216.211 25.0795ZM219.691 23.5881L219.432 22.6223L219.432 22.6223L219.691 23.5881ZM223.704 22.8956L223.789 23.892L223.795 23.8915L223.704 22.8956ZM227.504 22.4339L227.338 21.4479L227.336 21.4482L227.504 22.4339ZM229.706 21.7415L230.226 22.5953L230.234 22.5907L230.241 22.586L229.706 21.7415ZM230.593 20.4631L231.575 20.6551L231.593 20.56V20.4631H230.593ZM230.593 20.3743L229.605 20.2203L229.593 20.2968V20.3743H230.593ZM230.007 18.2614L230.69 17.5303L230.69 17.5303L230.007 18.2614ZM224.699 18.2614L224.173 17.4106L224.173 17.4106L224.699 18.2614ZM223.012 20.321L222.976 21.3204L223.702 21.3463L223.951 20.6638L223.012 20.321ZM215.057 20.0369L214.099 19.7496L213.727 20.9901L215.021 21.0363L215.057 20.0369ZM217.614 15.598L218.347 16.278L218.35 16.2746L217.614 15.598ZM222.213 12.5085L222.585 13.4366L222.588 13.4354L222.213 12.5085ZM233.381 11.9936L233.097 12.9524L233.104 12.9545L233.381 11.9936ZM236.914 13.7692L236.283 14.5445L236.293 14.5528L236.914 13.7692ZM238.992 16.6101L239.93 16.2644L239.93 16.2644L238.992 16.6101ZM239.258 20.4631L240.244 20.6284L240.245 20.6248L239.258 20.4631ZM236.151 39V40H236.997L237.137 39.1653L236.151 39ZM227.983 39L226.997 38.8341L226.801 40H227.983V39ZM228.623 35.2003L229.609 35.3662L229.805 34.2003H228.623V35.2003ZM228.409 35.2003V34.2003H227.885L227.587 34.6311L228.409 35.2003ZM226.154 37.544L225.56 36.7401L225.554 36.744L226.154 37.544ZM223.278 38.9822L223.565 39.9401L223.565 39.9401L223.278 38.9822ZM226.03 33.2116L225.609 32.3045L225.609 32.3045L226.03 33.2116ZM228.09 31.6491L227.325 31.005L227.324 31.0063L228.09 31.6491ZM229.173 29.3054L230.158 29.4762L230.16 29.4686L230.161 29.461L229.173 29.3054ZM229.581 26.7131L230.569 26.8687L230.879 24.9047L229.117 25.8272L229.581 26.7131ZM228.64 27.0682L228.37 26.1055L228.37 26.1055L228.64 27.0682ZM227.433 27.37L227.624 28.3516L227.637 28.3491L227.65 28.3462L227.433 27.37ZM226.119 27.6186L226.279 28.6057L226.29 28.604L226.3 28.6021L226.119 27.6186ZM224.858 27.8139L224.713 26.8245L224.707 26.8254L224.858 27.8139ZM222.639 28.4176L223.037 29.335L223.037 29.335L222.639 28.4176ZM221.13 29.483L220.373 28.8288L220.372 28.8304L221.13 29.483ZM220.455 31.0099L221.442 31.1679L221.444 31.1583L221.445 31.1486L220.455 31.0099ZM221.076 33.0696L220.419 33.8232L220.428 33.8311L221.076 33.0696ZM224.503 8.35369L224.495 9.35366L225.351 9.3604L225.49 8.5159L224.503 8.35369ZM219.993 8.31818L219.007 8.15299L218.813 9.30892L219.985 9.31815L219.993 8.31818ZM222.603 2.86719L223.281 3.603L223.284 3.59975L222.603 2.86719ZM229.262 1.42898L229.702 0.530913L229.702 0.530912L229.262 1.42898ZM230.771 2.40554L230.118 3.16331L230.125 3.16858L230.131 3.17376L230.771 2.40554ZM231.961 3.36435L231.348 4.15507L231.354 4.15976L231.361 4.16435L231.961 3.36435ZM234.855 3.04474L234.079 2.41347L234.078 2.41554L234.855 3.04474ZM235.689 1.03835L235.701 0.0384227L234.848 0.0281398L234.704 0.869386L235.689 1.03835ZM240.11 1.09162L241.095 1.26792L241.303 0.105914L240.122 0.0916914L240.11 1.09162ZM237.447 6.52486L236.77 5.7893L236.766 5.79229L237.447 6.52486ZM232.99 8.42472V9.42472H232.998L233.005 9.42461L232.99 8.42472ZM230.771 8.01633L230.316 8.90694L230.327 8.91269L230.339 8.91815L230.771 8.01633ZM229.333 7.03977L228.648 7.76862L228.653 7.77372L228.659 7.77873L229.333 7.03977ZM228.196 6.08097L227.584 6.87169L227.592 6.87796L227.601 6.88406L228.196 6.08097ZM225.355 6.36506L224.621 5.68601L224.621 5.68678L225.355 6.36506ZM219.78 38.4616C218.162 38.4616 216.82 38.1899 215.725 37.6839L214.886 39.4993C216.301 40.1534 217.942 40.4616 219.78 40.4616V38.4616ZM215.736 37.6888C214.69 37.1907 213.948 36.4575 213.471 35.474L211.672 36.347C212.355 37.7546 213.436 38.8088 214.876 39.4945L215.736 37.6888ZM213.475 35.4813C213.021 34.5268 212.875 33.2579 213.15 31.5994L211.176 31.2727C210.859 33.1891 210.985 34.9031 211.668 36.3398L213.475 35.4813ZM213.149 31.6055C213.39 30.1985 213.827 29.0675 214.429 28.1799L212.774 27.0573C211.979 28.2294 211.456 29.6434 211.177 31.2667L213.149 31.6055ZM214.427 28.1819C215.063 27.2492 215.835 26.5003 216.746 25.9248L215.677 24.2343C214.528 24.9609 213.559 25.9047 212.775 27.0553L214.427 28.1819ZM216.741 25.9275C217.693 25.3328 218.76 24.8735 219.951 24.5539L219.432 22.6223C218.066 22.9892 216.813 23.5242 215.681 24.2315L216.741 25.9275ZM219.951 24.5539C221.169 24.2268 222.447 24.0057 223.789 23.892L223.62 21.8992C222.167 22.0223 220.771 22.2628 219.432 22.6223L219.951 24.5539ZM223.795 23.8915C225.37 23.7483 226.665 23.5916 227.672 23.4197L227.336 21.4482C226.401 21.6077 225.163 21.7588 223.614 21.8997L223.795 23.8915ZM227.67 23.42C228.698 23.2466 229.58 22.9895 230.226 22.5953L229.185 20.8877C228.861 21.0853 228.275 21.2898 227.338 21.4479L227.67 23.42ZM230.241 22.586C230.949 22.1371 231.413 21.4797 231.575 20.6551L229.612 20.2711C229.56 20.5354 229.433 20.7303 229.17 20.897L230.241 22.586ZM231.593 20.4631V20.3743H229.593V20.4631H231.593ZM231.581 20.5283C231.759 19.3873 231.529 18.3138 230.69 17.5303L229.325 18.9924C229.551 19.2033 229.712 19.5383 229.605 20.2203L231.581 20.5283ZM230.69 17.5303C229.902 16.7949 228.813 16.5156 227.61 16.5156V18.5156C228.538 18.5156 229.048 18.7335 229.325 18.9924L230.69 17.5303ZM227.61 16.5156C226.326 16.5156 225.165 16.7978 224.173 17.4106L225.224 19.1122C225.842 18.7306 226.622 18.5156 227.61 18.5156V16.5156ZM224.173 17.4106C223.18 18.0239 222.47 18.888 222.072 19.9783L223.951 20.6638C224.193 20.0022 224.607 19.4931 225.224 19.1122L224.173 17.4106ZM223.047 19.3217L215.093 19.0376L215.021 21.0363L222.976 21.3204L223.047 19.3217ZM216.015 20.3243C216.467 18.8173 217.241 17.4711 218.347 16.278L216.881 14.9181C215.572 16.3291 214.642 17.9422 214.099 19.7496L216.015 20.3243ZM218.35 16.2746C219.445 15.0834 220.848 14.1336 222.585 13.4366L221.84 11.5805C219.86 12.375 218.198 13.4848 216.878 14.9214L218.35 16.2746ZM222.588 13.4354C224.317 12.7353 226.345 12.3722 228.694 12.3722V10.3722C226.141 10.3722 223.849 10.7666 221.837 11.5817L222.588 13.4354ZM228.694 12.3722C230.343 12.3722 231.807 12.5699 233.097 12.9523L233.665 11.0349C232.161 10.5887 230.501 10.3722 228.694 10.3722V12.3722ZM233.104 12.9545C234.394 13.3261 235.445 13.8619 236.283 14.5444L237.546 12.9939C236.466 12.1139 235.162 11.466 233.658 11.0327L233.104 12.9545ZM236.293 14.5528C237.125 15.2122 237.705 16.0096 238.053 16.9558L239.93 16.2644C239.45 14.9615 238.645 13.865 237.536 12.9855L236.293 14.5528ZM238.053 16.9558C238.396 17.8859 238.486 18.9902 238.271 20.3013L240.245 20.6248C240.504 19.0477 240.416 17.5833 239.93 16.2644L238.053 16.9558ZM238.272 20.2977L235.165 38.8347L237.137 39.1653L240.244 20.6284L238.272 20.2977ZM236.151 38H227.983V40H236.151V38ZM228.969 39.1659L229.609 35.3662L227.636 35.0344L226.997 38.8341L228.969 39.1659ZM228.623 34.2003H228.409V36.2003H228.623V34.2003ZM227.587 34.6311C227.008 35.4683 226.332 36.169 225.56 36.7401L226.749 38.348C227.705 37.6407 228.533 36.7789 229.232 35.7695L227.587 34.6311ZM225.554 36.744C224.8 37.3096 223.948 37.7371 222.991 38.0244L223.565 39.9401C224.738 39.5882 225.804 39.0569 226.754 38.344L225.554 36.744ZM222.991 38.0244C222.03 38.3125 220.963 38.4616 219.78 38.4616V40.4616C221.131 40.4616 222.395 40.2912 223.565 39.9401L222.991 38.0244ZM223.438 34.7798C224.493 34.7798 225.501 34.5595 226.451 34.1188L225.609 32.3045C224.926 32.6213 224.206 32.7798 223.438 32.7798V34.7798ZM226.451 34.1188C227.395 33.6809 228.201 33.0718 228.856 32.292L227.324 31.0063C226.866 31.5522 226.299 31.9848 225.609 32.3045L226.451 34.1188ZM228.855 32.2933C229.54 31.4801 229.975 30.5346 230.158 29.4762L228.188 29.1346C228.063 29.8518 227.776 30.4688 227.325 31.005L228.855 32.2933ZM230.161 29.461L230.569 26.8687L228.594 26.5575L228.185 29.1498L230.161 29.461ZM229.117 25.8272C228.949 25.9152 228.706 26.0109 228.37 26.1055L228.911 28.0308C229.332 27.9124 229.716 27.7713 230.045 27.5989L229.117 25.8272ZM228.37 26.1055C228.01 26.2065 227.626 26.3027 227.216 26.3938L227.65 28.3462C228.092 28.2479 228.513 28.1429 228.911 28.0308L228.37 26.1055ZM227.242 26.3884C226.819 26.4706 226.385 26.5529 225.938 26.6352L226.3 28.6021C226.753 28.5186 227.194 28.4352 227.624 28.3516L227.242 26.3884ZM225.959 26.6315C225.525 26.7018 225.11 26.7662 224.713 26.8246L225.004 28.8033C225.412 28.7433 225.837 28.6775 226.279 28.6057L225.959 26.6315ZM224.707 26.8254C223.791 26.9654 222.964 27.1862 222.241 27.5003L223.037 29.335C223.568 29.1045 224.221 28.9229 225.009 28.8025L224.707 26.8254ZM222.241 27.5003C221.5 27.8215 220.866 28.2586 220.373 28.8288L221.886 30.1371C222.15 29.8314 222.523 29.5582 223.037 29.335L222.241 27.5003ZM220.372 28.8304C219.872 29.4113 219.572 30.1019 219.465 30.8713L221.445 31.1486C221.503 30.7343 221.654 30.4069 221.887 30.1355L220.372 28.8304ZM219.467 30.852C219.285 31.9944 219.543 33.0594 220.419 33.8232L221.734 32.316C221.497 32.1091 221.341 31.8011 221.442 31.1679L219.467 30.852ZM220.428 33.8311C221.225 34.5096 222.275 34.7798 223.438 34.7798V32.7798C222.565 32.7798 222.04 32.5766 221.724 32.3081L220.428 33.8311ZM224.511 7.35372L220.001 7.31821L219.985 9.31815L224.495 9.35366L224.511 7.35372ZM220.98 8.48337C221.358 6.22543 222.154 4.6394 223.281 3.60299L221.926 2.13139C220.377 3.5571 219.434 5.60507 219.007 8.15299L220.98 8.48337ZM223.284 3.59975C224.459 2.50831 225.713 2.00284 227.078 2.00284V0.00284064C225.151 0.00284064 223.423 0.740272 221.923 2.13462L223.284 3.59975ZM227.078 2.00284C227.853 2.00284 228.419 2.12951 228.822 2.32704L229.702 0.530912C228.945 0.160265 228.055 0.00284064 227.078 0.00284064V2.00284ZM228.822 2.32704C229.336 2.57905 229.766 2.85951 230.118 3.16331L231.423 1.64777C230.924 1.21766 230.347 0.847082 229.702 0.530913L228.822 2.32704ZM230.131 3.17376C230.564 3.53512 230.97 3.8624 231.348 4.15507L232.573 2.57362C232.217 2.29811 231.83 1.98619 231.411 1.63732L230.131 3.17376ZM231.361 4.16435C231.912 4.57826 232.549 4.79048 233.239 4.79048V2.79048C232.982 2.79048 232.766 2.71861 232.561 2.56435L231.361 4.16435ZM233.239 4.79048C234.196 4.79048 235.028 4.42006 235.632 3.67394L234.078 2.41554C233.877 2.66374 233.631 2.79048 233.239 2.79048V4.79048ZM235.63 3.67602C236.18 3.00113 236.512 2.15891 236.675 1.20731L234.704 0.869386C234.583 1.57499 234.358 2.07036 234.079 2.41347L235.63 3.67602ZM235.677 2.03828L240.098 2.09155L240.122 0.0916914L235.701 0.0384227L235.677 2.03828ZM239.126 0.91532C238.726 3.14781 237.914 4.73522 236.77 5.78931L238.125 7.2604C239.679 5.8287 240.642 3.79395 241.095 1.26792L239.126 0.91532ZM236.766 5.79229C235.587 6.88805 234.332 7.40516 232.976 7.42482L233.005 9.42461C234.916 9.39692 236.632 8.64746 238.128 7.25742L236.766 5.79229ZM232.99 7.42472C232.167 7.42472 231.59 7.29989 231.203 7.11452L230.339 8.91815C231.088 9.27729 231.991 9.42472 232.99 9.42472V7.42472ZM231.226 7.12573C230.737 6.87638 230.334 6.59963 230.006 6.30082L228.659 7.77873C229.136 8.21382 229.692 8.58811 230.316 8.90694L231.226 7.12573ZM230.017 6.31092C229.603 5.92192 229.195 5.57666 228.792 5.27787L227.601 6.88406C227.932 7.12978 228.281 7.42373 228.648 7.76862L230.017 6.31092ZM228.809 5.29024C228.249 4.85719 227.59 4.65483 226.882 4.65483V6.65483C227.193 6.65483 227.41 6.73656 227.584 6.87169L228.809 5.29024ZM226.882 4.65483C225.991 4.65483 225.225 5.03333 224.621 5.68601L226.09 7.0441C226.362 6.74981 226.614 6.65483 226.882 6.65483V4.65483ZM224.621 5.68678C224.019 6.33836 223.678 7.20764 223.516 8.19149L225.49 8.5159C225.612 7.77152 225.839 7.31505 226.09 7.04334L224.621 5.68678ZM247.053 37.7393L246.516 38.5828L246.518 38.5843L247.053 37.7393ZM243.129 32.7855L242.187 33.1222L242.187 33.1222L243.129 32.7855ZM242.685 25.3991L241.698 25.2361L241.698 25.2368L242.685 25.3991ZM245.544 18.0483L246.369 18.6136L246.369 18.6136L245.544 18.0483ZM251.083 13.13L251.546 14.0168L251.546 14.0168L251.083 13.13ZM265.821 13.1477L265.283 13.9912L265.286 13.9927L265.821 13.1477ZM269.762 18.1016L268.821 18.4382L268.822 18.4429L269.762 18.1016ZM270.224 25.5057L271.211 25.6687L271.211 25.6674L270.224 25.5057ZM267.348 32.8565L268.169 33.4272L268.17 33.425L267.348 32.8565ZM261.808 37.7571L262.272 38.6429L261.808 37.7571ZM258.008 32.0043L257.408 31.2042L257.403 31.2083L258.008 32.0043ZM260.157 29.3232L261.049 29.774L261.049 29.774L260.157 29.3232ZM261.4 25.3281L260.413 25.1637L260.413 25.1662L261.4 25.3281ZM261.471 21.4041L260.484 21.5685L260.486 21.5803L261.471 21.4041ZM260.263 18.7585L259.543 19.4522L259.549 19.4589L260.263 18.7585ZM254.883 18.7763L255.483 19.5763L255.49 19.5709L254.883 18.7763ZM252.735 21.4574L251.842 21.0065L251.84 21.0102L252.735 21.4574ZM251.51 25.4524L252.496 25.6168L252.497 25.6131L251.51 25.4524ZM251.421 29.3764L252.407 29.2103L252.407 29.2103L251.421 29.3764ZM252.646 32.022L251.932 32.7225L251.939 32.7291L252.646 32.022ZM254.173 38.5149C251.43 38.5149 249.257 37.9506 247.588 36.8944L246.518 38.5843C248.59 39.8955 251.163 40.5149 254.173 40.5149V38.5149ZM247.59 36.8959C245.923 35.8342 244.755 34.3633 244.071 32.4488L242.187 33.1222C243.018 35.4454 244.466 37.277 246.516 38.5828L247.59 36.8959ZM244.071 32.4488C243.383 30.5266 243.231 28.2427 243.672 25.5615L241.698 25.2368C241.216 28.1663 241.359 30.8067 242.187 33.1222L244.071 32.4488ZM243.672 25.5622C244.112 22.8972 245.016 20.5875 246.369 18.6136L244.719 17.4829C243.183 19.7231 242.181 22.314 241.698 25.2361L243.672 25.5622ZM246.369 18.6136C247.721 16.6409 249.443 15.1123 251.546 14.0168L250.621 12.2431C248.226 13.4914 246.255 15.2417 244.719 17.4829L246.369 18.6136ZM251.546 14.0168C253.635 12.9281 256.024 12.3722 258.736 12.3722V10.3722C255.743 10.3722 253.03 10.9881 250.621 12.2431L251.546 14.0168ZM258.736 12.3722C261.467 12.3722 263.627 12.9362 265.283 13.9912L266.358 12.3043C264.297 10.9918 261.735 10.3722 258.736 10.3722V12.3722ZM265.286 13.9927C266.964 15.055 268.137 16.5257 268.821 18.4382L270.704 17.7649C269.873 15.4398 268.418 13.6079 266.355 12.3027L265.286 13.9927ZM268.822 18.4429C269.52 20.3634 269.678 22.6515 269.237 25.344L271.211 25.6674C271.693 22.7254 271.544 20.0774 270.702 17.7602L268.822 18.4429ZM269.237 25.3426C268.797 28.0061 267.889 30.3147 266.525 32.288L268.17 33.425C269.719 31.1843 270.728 28.5924 271.211 25.6687L269.237 25.3426ZM266.526 32.2859C265.161 34.2502 263.437 35.7749 261.344 36.8713L262.272 38.6429C264.653 37.3955 266.622 35.6532 268.169 33.4272L266.526 32.2859ZM261.344 36.8713C259.267 37.9589 256.885 38.5149 254.173 38.5149V40.5149C257.166 40.5149 259.874 39.899 262.272 38.6429L261.344 36.8713ZM255.15 33.9631C256.431 33.9631 257.597 33.5731 258.614 32.8002L257.403 31.2083C256.738 31.7139 255.998 31.9631 255.15 31.9631V33.9631ZM258.608 32.8043C259.606 32.0555 260.414 31.0314 261.049 29.774L259.264 28.8723C258.739 29.9113 258.114 30.6746 257.408 31.2043L258.608 32.8043ZM261.049 29.774C261.683 28.5193 262.124 27.0869 262.386 25.49L260.413 25.1662C260.178 26.5997 259.79 27.8306 259.264 28.8723L261.049 29.774ZM262.386 25.4925C262.648 23.9226 262.682 22.4949 262.455 21.228L260.486 21.5803C260.662 22.5624 260.649 23.7507 260.413 25.1637L262.386 25.4925ZM262.457 21.2397C262.244 19.9633 261.775 18.8714 260.977 18.0582L259.549 19.4589C259.982 19.9004 260.318 20.5722 260.484 21.5685L262.457 21.2397ZM260.983 18.0649C260.144 17.1936 259.03 16.7997 257.76 16.7997V18.7997C258.596 18.7997 259.151 19.0451 259.543 19.4522L260.983 18.0649ZM257.76 16.7997C256.473 16.7997 255.301 17.1984 254.276 17.9816L255.49 19.5709C256.169 19.0521 256.915 18.7997 257.76 18.7997V16.7997ZM254.283 17.9763C253.285 18.725 252.477 19.7491 251.842 21.0065L253.627 21.9083C254.152 20.8693 254.777 20.106 255.483 19.5763L254.283 17.9763ZM251.84 21.0102C251.218 22.254 250.784 23.686 250.523 25.2917L252.497 25.6131C252.732 24.1649 253.115 22.9335 253.629 21.9046L251.84 21.0102ZM250.523 25.288C250.262 26.8554 250.222 28.2795 250.435 29.5425L252.407 29.2103C252.241 28.2243 252.26 27.0324 252.496 25.6168L250.523 25.288ZM250.435 29.5425C250.649 30.8137 251.127 31.9018 251.932 32.7225L253.36 31.3215C252.91 30.8638 252.572 30.1882 252.407 29.2103L250.435 29.5425ZM251.939 32.7291C252.786 33.5765 253.892 33.9631 255.15 33.9631V31.9631C254.323 31.9631 253.76 31.7223 253.353 31.3149L251.939 32.7291Z" fill="black" fill-opacity="0.3"/>
</svg>
