<svg width="258" height="258" viewBox="0 0 258 258" fill="none" xmlns="http://www.w3.org/2000/svg">
<path d="M253 129C253 60.5417 197.458 5 129 5C60.5417 5 5 60.5417 5 129C5 197.458 60.5417 253 129 253C197.458 253 253 197.458 253 129Z" stroke="#494F92" stroke-width="10" stroke-miterlimit="10"/>
<path d="M195.888 25.1888V154.726M249.353 101.261L154.726 195.888M232.811 195.888H103.274M156.74 249.353L64.1257 156.739M62.1126 231.904V103.274M8.64746 156.739L101.261 64.1252M25.1893 62.1122H149.581M101.261 8.64697L195.888 103.274" stroke="#494F92" stroke-width="10" stroke-linecap="round" stroke-linejoin="round"/>
<path d="M107.241 110.701V110.511L107.115 110.369L98.14 100.245V82.5H107.761V90.7277V91.2277H108.261H114.648H115.148V90.7277V82.5H124.769V90.7277V91.2277H125.269H131.656H132.156V90.7277V82.5H141.778V90.7277V91.2277H142.278H148.745H149.245V90.7277V82.5H158.866V100.245L149.891 110.369L149.765 110.511V110.701V147.031V147.531H150.265H154.93L159.41 174.5H97.5899L102.07 147.531H106.741H107.241V147.031V110.701ZM139.872 157.952H140.479L140.363 157.356L134.992 129.872C138.351 127.909 140.606 124.248 140.606 120.055C140.606 113.866 135.685 108.83 129.564 108.714L129.562 108.712H129.349C123.129 108.712 118.093 113.794 118.093 120.055C118.093 124.246 120.35 127.908 123.706 129.872L118.336 157.356L118.22 157.952H118.827H139.872Z" fill="#494F92" stroke="#494F92"/>
</svg>
